        <svg viewBox="0 0 1519 1145" xmlns="http://www.w3.org/2000/svg" role="img" aria-label="Áreas de Brodmann, vista lateral">
<g id="lat-areas" fill-rule="evenodd">
  <path id="lat-BA1" class="area" data-ba="1" data-nome="Córtex somatossensorial primário (S1)" fill="#FCCBA2" d="M990,77.9L978.4,73.7L967,87.6L950,97.3L898,112.4L881,122.4L876,128.3L854,137.7L824,156.9L814.1,167L802.3,192L800,203L800.4,212L808.1,231L810.9,245L829.4,286L836.6,297L841.9,312L842.1,341L836.1,355L827.9,366L809,379.3L798,393.6L779.9,408L773.4,408L761,413L731,413L717,416.9L711,420.3L700,431.1L682,440L676.3,445L671.9,454L670,465L670,485L668,498L669.1,529L665,535L650.4,548L639.1,570L627.3,625L615.6,654.7L629,657.4L638.6,650L653.4,622L676.7,598L694.4,572L702,564.7L703.1,553.4L709.3,548L723.1,523.6L747,515.6L787.7,511.6L795.3,499L824.4,467L841,441L870,409L886,395.9L894.1,392.6L896.9,381L896.9,365L899.9,359.1L905.9,354L902.7,335L888.3,295L873.6,270L876.1,257.1L842,233.6L831.3,222L830,201L833.3,186L843.4,167L860,152L883,139.3L960,104.3L988,87.4L992,82Z"/>
  <path id="lat-BA2" class="area" data-ba="2" data-nome="Córtex somatossensorial primário (S1)" fill="#B2FF03" d="M1006.4,91L1000,84.6L993.9,81.9L983,92.1L960,105.3L907,129.4L901,134.3L917,133.6L930,130.1L948,117.3L983,100.7L1002,97.1L1005.9,94.4Z"/>
  <path id="lat-BA3" class="area" data-ba="3" data-nome="Córtex somatossensorial primário (S1)" fill="#B10000" d="M973.9,72.4L958,69.9L943,79.3L852,118.7L823,139L804.7,158L794,173L780.9,200L779.7,213L785.1,229L785.1,236L790.7,249L799.4,261L821.9,305L825.4,316L826,334L824.4,340L817.1,350L788,378L775.4,393L773.6,401L776.1,406.7L780,406.1L791,398.6L800.4,390L808,379.1L827.7,365L835.7,354L841.7,339L840.9,312L835.6,297L828.4,286L809.9,245L807.1,231L799.4,212L799,203L801.3,192L813.1,167L824,155.9L898,111.4L944,98.7L965,88L974.7,77ZM979.6,56.6L970.6,57.6L969.6,61.4L976.9,62.6Z"/>
  <path id="lat-BA4" class="area" data-ba="4" data-nome="Córtex motor primário (M1)" fill="#FF0147" d="M930,34.7L883,18.1L867,14.9L794,15L701,31.3L675,42.1L655.4,57.4L655.4,62L660,66.9L678,71L689.6,78L703.4,106L706.1,147L703.7,155L705.4,170L719.4,207L724,236L723.1,248L713.3,263L710.4,271L708,298L710.7,303.1L717,305.4L727.6,315.1L734.6,325L738.7,336L739,356L733,365L717,377L677,395.3L666.6,406L661.9,414L653,453L646.1,467L635,482L629.7,497L622,557L622,574L618,606L618.7,623L622,630.4L625.1,629L635.4,579L643.3,558L650.3,547L664,535L668.1,529L667,498L669,485L669,465L670.9,454L674.6,446L682,439L700,430.1L711,419.3L717,415.9L731,412L761,412L769.9,409.3L772.4,406L772.6,397L775.9,391L787,378L814.4,352L824.3,338L825,320L822,308L798.4,261.1L789.7,249L784.1,236L784.1,229L779.7,218L778.7,204L790.7,177L808,153L823,138L840,125.1L860,113.7L943,78.3L956.9,69.3L957.9,64L950.6,51L942,42.4Z"/>
  <path id="lat-BA5" class="area" data-ba="5" data-nome="Córtex somatossensorial associativo (lóbulo parietal superior)" fill="#E0FF01" d="M1010.3,96L1007.7,94.6L1000,99L981,102.6L950,117.1L930,131.1L914,135L896,134.9L858,154.4L844.4,167L834.3,186L831,201L831,217L834.3,225L851,239L880.1,257.7L906,248.4L929,232.4L935,226L931.6,190L937.1,169L940.1,145.1L943,142.9L989.7,129.6L1012.4,104.6Z"/>
  <path id="lat-BA6" class="area" data-ba="6" data-nome="Córtex pré-motor e área motora suplementar" fill="#FF6B19" d="M627,48.4L573,46L540,48.6L505,61.4L486,74.9L448,65L425,66.7L414,70.3L399,79.3L384,91L375.3,102L378,106.9L389,109.7L410,122.3L415.1,133.1L434,136.7L442,134.4L459,141.3L469.9,158L480.6,184.9L487.7,190L495.9,207L493.6,212.4L494.4,215L509.9,232.6L519,235.4L525.1,242L532.3,262L532,278L544,297L549.4,315L551,331L545.3,350L532.3,371L521,384L509,391.1L506.7,396L517.4,406L520.1,412.6L526.7,418L530.3,424.7L554,419L560.9,420.4L570.7,429L572.1,438.9L575.9,446L575,475L569.6,487L571,505L569.4,514L565.6,519.3L566.3,531L557.3,540.1L547.7,557L536.7,583L533,608L533,660L527.7,689L516.1,713L508,722.7L498,727.7L474,728L471.4,729.4L470.6,749L473.4,757L478,760.3L506,761.7L519,750.9L563,728.6L566,725L566,715L579.1,670L583.9,660L591,656.1L604,660.1L616.7,650.7L622.6,635L617.7,623L617,606L621,574L621,557L628.7,497L634,482L645.1,467L652,453L660.9,414L665.6,406L677,394.3L717,376L733,364L737.9,357L738,338L733.6,325L719,308L709.7,303.6L707,298L709.4,271L712.3,263L722.1,248L723,236L718.4,207L704.4,170L702.7,156L705.1,148L704,114L700.9,101L691.9,83L686,75.9L678,72L661,68.4L650.9,57.4Z"/>
  <path id="lat-BA7" class="area" data-ba="7" data-nome="Córtex parietal associativo (pré-cúneo)" fill="#A4FFD6" d="M874.4,267L875,271L883.4,283L894.9,308L906.6,345L906.6,355L900.3,360.1L897,369L898,381L896.3,391L900,394L911,391.7L929,384.3L962,366.6L992,367L1018,364L1078,396.1L1090,406.9L1110,407.6L1129,412.9L1137,409.3L1157,408.1L1176.4,401.6L1189,384L1206,370L1265,341.3L1278,333L1281.1,329L1283,322L1280.7,307L1269.1,280L1260.6,268L1235,244L1220,226.4L1200,216.4L1177.4,213.6L1174,197L1165,183L1120,142.4L1102,129.9L1078,119.1L1028,105L1012,106.4L1005.1,112L989,131.1L941.6,144.9L933,191L935.4,227.9L906,249.4L878.7,259.9Z"/>
  <path id="lat-BA8" class="area" data-ba="8" data-nome="Campos oculares frontais / pré-frontal dorsal" fill="#47FF00" d="M287.9,140.4L281.6,146L278,153L281.6,151ZM301.3,130.7L299.3,134L297.6,147L281.4,166.1L280,171L281.4,179.6L289.9,183.1L296.7,193L301.7,217L305.3,224.7L319,229.4L366,234.4L402,245L412,249.1L437,268L451,275.3L459.9,287L468.4,344L478.3,377L486,386.7L493.7,392.1L500,384.1L509,377.1L512.6,379L513.6,387.3L521,383L532.3,369L532.1,366.9L526.1,365.1L525,363L532.9,349L537,345.4L544.7,344.1L547.4,341L550,331L549.4,323L547.6,321L541.1,320L538,316L532.1,296L537.4,288L531,278L529.6,268.4L521.7,264L515.7,248L508.6,239L507.1,230L491.1,211.9L484.9,207.9L477,193L476.3,189.1L479.1,184L471.4,165.4L460.1,162.4L450.7,149.9L440.1,145.1L434.9,138L409,134.6L381,116.9L377.9,108L372,104L359.1,104.6L353,115.3L327,126.1L318,122.9Z"/>
  <path id="lat-BA9" class="area" data-ba="9" data-nome="Córtex pré-frontal dorsolateral" fill="#92FFAE" d="M27.9,404L28.6,406L31.9,405L37.1,397.1L41,396L80,410.1L104,412L135,407.7L176,418.4L201,419L213,421.3L233.7,429.3L245.4,411L260,399.7L275,394.6L314,388.1L333,383.1L353,362.9L353.9,347L362.7,334.4L366,333.4L378,335.7L396.6,343.1L403,354L405,364L401.7,385L404,394L404.6,414L400,426L398.6,463L395.4,471L387.3,479L381,491L380,502L381.9,509.1L386,510L409,506.4L430,500.9L446,494L451,495.7L461,504.6L482.3,529.7L490.1,530.1L490.6,541.4L541,537L556,537.3L562,534.9L565.3,530.9L562.9,524.9L564,520L558.4,516.6L557.6,513L559.9,492L568,487.6L573.9,476L573.1,467.4L566.1,464.6L564.6,461L565,445L570.9,438.9L570.1,430L564.4,426L558,430.9L533.1,434L524,416.4L515,411.1L506,411.4L498.3,405L493.6,394L484.1,386L475.7,374L467.4,344L458.9,287L455.7,281L448,274.1L437,269L420,255.3L408,248.1L366,235.4L319,230.4L306,226.4L301.9,221L295.7,193L289.7,184.1L280.9,180.6L278.9,169.3L272.9,161.7L248.3,167.9L251,174L249.4,179.7L229,188.3L224.4,188.3L221.6,181.1L216,182.7L201.1,191.3L198.1,203L194,207L174,217.9L171.9,216.9L170.1,210.6L168,210.3L147.7,228.3L159,226L162.4,227.4L162.4,230L149.3,244L143,253.6L130.7,256.1L125.7,277.7L108,291.9L104.1,289L105.3,279.1L99,282.7L83.7,297.1L85,299.9L93,299.3L95.1,301.1L82.3,320L77,323.7L67,323.1L62.3,328L54.7,341ZM514,526L517,520.9L527,519L545,520.4L549,526L548,529.9L545,531.9L520,532.1L515.4,530.7ZM63.7,347.9L64.4,353L57.1,370L53,373.6L47.1,373.1L45.7,369L53.6,350L58,347.1Z"/>
  <path id="lat-BA10" class="area" data-ba="10" data-nome="Córtex frontopolar (pré-frontal anterior)" fill="#283FFF" d="M29.1,407.3L26.6,410L25,418L26,446L27.4,449.1L34,448.6L37.1,451L38,473L35.9,477.9L32,480.1L28.1,480L24.4,477.3L22.6,478.1L15.4,497L15.7,525L18.4,506.1L24,504.4L27.9,509L28.6,531L26,533.6L19.6,533.3L18.7,535L19.6,556.7L27,558.9L28.9,563L27.9,585L24,587.9L19.1,586.6L15.7,574L15,593L20.9,629.9L22,631.1L23,629L21.4,615L24,612L28,611.4L31.3,614L33.4,620L34,634L31.9,638.1L22.3,642L14.6,660L16.1,663.1L22.9,665L25.6,668L33.3,686L33.3,690.6L30,692L24.1,690.6L15.4,674L14.1,676L36.7,735L45.4,748.9L62.9,760.3L66.6,767.3L68.7,764L69.7,754.3L79.6,749.6L84,740.6L89,739L106,739L111.6,743L109.9,749.4L90.9,750.9L96,750.3L115,754L145,767.4L151.7,772.1L135.9,757L135.9,750.1L140,748.9L159.7,763L163.6,780L182,795.4L184.6,795.4L186.4,787.4L190,786.9L204,794L218.4,798.3L219.9,802L218.6,805.9L215,807.9L205.7,806.7L208.3,808.7L239.1,815L237,798L240.1,786L245.1,778L259.1,765L272.4,731L269.9,728.1L257,728.3L244,720.6L231.6,708L224.6,694L230,665L221.6,624L218.6,599L223,580L224,548L210,519L206.4,504L206,490L207.4,485L226.6,454L232.7,438L232,431.4L213,422.3L201,420L176,419.4L135,408.7L118,412L92,413L77,410.6L49,400.9L45.7,403L40.1,422L35,424.9L30.4,421L32.1,407.6ZM38.3,716.9L45,716.6L50.9,722L56.7,734L55.6,746.1L51.1,744.9L44.9,737L37.4,722Z"/>
  <path id="lat-BA11" class="area" data-ba="11" data-nome="Córtex orbitofrontal" fill="#F37800" d="M374.7,833.4L343,847.4L268,860L241,860.6L235,858L172.9,853L194,857L232.6,860.9L231,863.9L196.7,867.9L226,871L275,865.3L345,853.6L357,849.4ZM68.6,767.6L67.9,773L72.4,781L95,803L120,833L136,845.6L159.9,854.4L165.3,864.1L173.1,865.6L168.6,858L167.9,852L155,848.3L131,835L90,788L76,777.7ZM81.4,765L83.1,769.7L103,786L140,828L163,840.7L242,849L308,844L347,836.1L366,826.1L370.9,820L368,814.6L361,813L333,816.4L309,824L235,825.3L190,813.7L155,786.6L110,763.9L86,762Z"/>
  <path id="lat-BA17" class="area" data-ba="17" data-nome="Córtex visual primário (V1)" fill="#7AFFD4" d="M1487.6,651.4L1481,653.9L1471,662.1L1453,683.4L1423,703.1L1414.1,715.1L1413.7,736L1426,769L1426.7,777L1423.6,783L1411,795.9L1398.4,805L1396.4,809L1396,818L1414.1,882L1420.4,892.9L1428,896.4L1434.3,895.7L1457,879.3L1468,869L1482.9,849L1495.7,825L1495.4,808L1483.7,773L1486,767L1501.3,748L1504.3,740L1505,731L1502.7,714L1495.6,693L1498.7,685L1498.7,678Z"/>
  <path id="lat-BA18" class="area" data-ba="18" data-nome="Córtex visual secundário (V2)" fill="#740BFE" d="M1432.6,553.1L1415,556.9L1400,563.3L1383,573.9L1370,586L1361,598L1353,617L1350,630L1350,667L1356,693L1354.7,701.9L1358.4,709L1358.1,721L1350.7,740L1337.4,760L1322,773L1313,777.1L1266.6,784.4L1270,788.4L1289,796.7L1304,810.3L1323.7,838L1335.7,851L1352.7,907L1357.4,946L1359.3,951L1362.1,953.1L1383,945.3L1410,930.9L1423.7,918L1431,905L1431.1,898.9L1420.3,893.9L1413.1,882L1395,818L1395.4,809L1398.1,804L1410,795.7L1422.6,783L1425.7,777L1425,769L1412.7,736L1413.1,715L1422,703L1453,682.4L1470,662L1486.9,648.7L1476.7,621Z"/>
  <path id="lat-BA19" class="area" data-ba="19" data-nome="Córtex visual associativo (V3/V4/V5)" fill="#8FC800" d="M1284,332.7L1279,333.4L1265,342.3L1206,371L1190,384L1176.6,402.6L1157,409.1L1137,410.3L1133.6,413L1135,416L1153,428.7L1196,475L1208,484.1L1226.6,494.1L1228.9,509L1236.6,523L1233.1,541L1219.4,571L1216.3,593L1217,610L1213.6,630L1205.9,641L1197,648.1L1165.9,658.3L1159,673L1144.9,693L1136,710L1136,739L1130.3,755.9L1133.7,763L1137.9,793L1159.1,833L1168.3,865L1176,875L1202.7,930L1215.1,946L1224.9,965.7L1227.1,967.1L1251,965.7L1266,957.1L1285,962.1L1306,963L1344,959.4L1358.3,954.4L1351.7,907L1334.7,851L1322.7,838L1303.9,811.3L1289,797.7L1268,788.3L1265.6,784.1L1268,782.1L1313,776.1L1331,765.6L1340.7,754L1349.7,740L1356.1,725L1358,715L1357.1,708L1353.7,702L1355,693L1349,667L1349,630L1352,617L1360,598L1369,586L1383,572.9L1400,562.3L1415,555.9L1426,553.9L1430.6,550.7L1421,533L1392.4,493L1370.9,472L1370.1,443L1365,431L1359.1,408L1345,382L1309,340.7L1298,335.1Z"/>
  <path id="lat-BA20" class="area" data-ba="20" data-nome="Giro temporal inferior" fill="#FBAEC0" d="M954.3,988L952.4,984.4L938.7,975L934.3,964L933.1,953.9L925,951L908,954.4L889,962.7L872,976.7L867.6,983.9L860.4,983.4L848,992L805,1006.3L769,1010.3L738,1024.7L716,1030L706.3,1028.4L699,1034L684,1031L667,1035.4L642,1038L599,1039L530,1032L521,1028.1L506,1026.3L475.6,1040.6L472,1053L473.1,1069L468.9,1076L459.3,1084.1L452.4,1100.6L467,1109L513,1120.3L580,1129L630,1131L649,1128.6L669,1120.6L689,1122L706,1119.4L737,1106.4L774,1075.7L861,1037.4L869,1031L887,1009L893,1004.4L944,994.4L952.9,991.4Z"/>
  <path id="lat-BA21" class="area" data-ba="21" data-nome="Giro temporal médio" fill="#D78B00" d="M1009.9,698.1L1006,696.7L996.6,700.7L994.3,710L973.4,737L940.6,787L917,817L901,829.3L872,842.4L864,843.9L838,855L799,865.1L775,867L759,865.4L721,856.9L663,849L612,850L595,857.3L582,861L566,862.3L529,874.6L482,894.4L454,911L448.9,919L444.4,935L447.6,970L455.1,984L460.3,1000L468.1,1011L474,1015.7L499.1,1027.3L509,1025.1L521,1027.1L529,1030.9L599,1038L642,1037L667,1034.4L684,1030L698,1033.1L706.1,1027.4L716,1029L738,1023.7L769,1009.3L805,1005.3L848,991L860.1,982.4L867.1,982.9L870.1,977.4L879,969L895,958.7L914,951.6L925,950L934,951.6L954,938.7L985,925.4L1003,912.4L1010.7,904L1017.3,893L1023.6,874L1022.6,870.3L1013.4,860L1010,844L1010.7,837.3L1015.4,830L1017.9,818L1025.4,800L1026,781L1019.9,756Z"/>
  <path id="lat-BA22" class="area" data-ba="22" data-nome="Giro temporal superior (área de Wernicke posterior)" fill="#50FF4C" d="M1054.1,619.6L1017,604.6L968,595.7L961,593L915.1,595.4L913.1,598L912.1,607L902,629L899,642L887.7,668L847.9,729L836,744L826,753.4L813,762L798,765.6L780.1,763.6L773,769.1L761,774.7L720,776L697,772.1L678,760.9L655,755.1L641,749.3L623,738.7L594,726.7L585,718.4L580,718.6L555,734.6L519,751.9L506.9,764.3L508.4,786L524.7,807L531.7,822L533,843L529.4,871.7L533,872.7L566,861.3L582,860L595,856.3L606,850.4L622,848L663,848L721,855.9L770,866L793,865L838,854L864,842.9L872,841.4L901,828.3L916,817L939.6,787L972.4,737L993.3,710L996.1,699.7L1032,683.3L1048.9,670L1050.6,666L1050,643Z"/>
  <path id="lat-BA37" class="area" data-ba="37" data-nome="Giro fusiforme / região temporo-occipital" fill="#35DB0D" d="M1012.1,694.3L1010.9,696.3L1011.6,708L1021.3,758L1025.7,771L1027,796L1018.9,818L1016.4,830L1011.7,837.4L1011,844L1014.4,860L1023.6,870.1L1024.6,874L1017.3,895L1004,912.6L985,926.4L960,936.7L937.6,950L935.1,955L935,962L939.7,974.9L952.7,983.4L956.6,989L960,989.3L984,983.7L1051,961.3L1073,957.9L1084,951.9L1108,962.7L1126,963.3L1137,967.3L1178,974L1189,974L1222.6,967.7L1222.1,960.4L1214.1,946L1201.7,930L1175,875L1167.3,865L1158.1,833L1135.7,789L1132.7,763L1129.3,756L1135,739L1134,715L1136.7,706L1151.1,680L1131,676L1117,675.7L1098,671L1093,672.6L1084,680.9L1080,682.1L1053,668.7L1036,682Z"/>
  <path id="lat-BA38" class="area" data-ba="38" data-nome="Polo temporal" fill="#819400" d="M501,762.9L474,761.6L457,772.3L427,786.9L409.6,800.3L397,821L392,824.4L382,826.6L359.9,848.4L369,845.7L371.3,847.1L369.7,851L347.7,875L334.7,894L322.9,928L317.4,952L317,970L320.6,991L325.7,1006L334.4,1019L359,1041.1L369,1047.7L394,1060L416,1065.4L436.1,1091.7L449.7,1099L458.9,1083.1L468.7,1075L472.1,1069L471,1053L474.6,1040.3L496,1028L471,1014.6L459.3,1000L453.7,983L447.1,972L443.3,936L447.9,919L451.3,913L458,906.9L468,902.7L484,892.4L523,876.7L528.3,870L532,843L530.7,822L523.7,807L508.4,788L506,780L505.6,766Z"/>
  <path id="lat-BA39" class="area" data-ba="39" data-nome="Giro angular" fill="#D9FAC3" d="M1090.1,408.1L1076,434L1063.9,450L1032,478L1012.3,500L1001.9,518L981.7,546L968.3,578L961.3,589.7L968,594.7L995,598.6L1023,605.3L1053.9,618L1055.6,622L1051,643L1051.7,664.9L1075,679.3L1082,680.9L1093,671.6L1098,670L1117,674.7L1152.7,678.3L1158,673L1166.1,656.6L1195,648.3L1204,641.7L1211.6,632L1216,610L1215.3,593L1218.4,571L1232.1,541L1235.6,523L1227.9,509L1225.6,494.4L1208,485.1L1196,476L1175.9,453L1148,425.6L1124,412L1106,408ZM1069.4,448.3L1064.4,456.9L1058.3,460.1L1061.4,455Z"/>
  <path id="lat-BA40" class="area" data-ba="40" data-nome="Giro supramarginal" fill="#5CBF00" d="M1085.6,405L1078,397.1L1018,365L992,368L962,367.6L913,392L887,396.3L870.1,410L839.4,444L825.4,467L796.3,499L787.9,512.6L747,516.6L723.4,524.6L710.3,548L704.1,553.7L703,564.9L695.4,572L677.7,598L654.4,622L634.6,658.1L640,658L648,653.6L662,638L678,637.3L687.6,643L693.6,652L697.3,664L701,667.9L715,673.7L736,675.6L756,660.4L771,656.4L815,651.6L846,638.3L866,628L884,615.7L901,595.4L944,594L956.9,591.9L965.3,582L981.9,544L998.9,521L1015.6,494L1032,477L1062,451L1073.7,436L1086,412Z"/>
  <path id="lat-BA41" class="area" data-ba="41" data-nome="Córtex auditivo primário (giro de Heschl)" fill="#3E2AFF" d="M875.7,629L874.1,626.4L871,626L846,639.3L815,652.6L771,657.4L756.1,661.4L729,683.4L715.3,687.4L706,693.7L679,698.4L655,707.6L619,709.6L614.9,711.6L614.6,715L618,718.7L633,727.1L692,739L720,737.6L766,724.9L805,709.3L832,694L849,674L875.4,634Z"/>
  <path id="lat-BA42" class="area" data-ba="42" data-nome="Córtex auditivo secundário" fill="#E40300" d="M911.9,598.1L909,596L899.4,597.4L887,614L876.3,622.3L876.4,634L846.4,679L832,695L821,702.6L785,719L735,735.3L717,739L692,740L633,728.1L617,719.1L610.9,711.1L590,712.3L586.3,714.3L585.9,717L594,725.7L623,737.7L639,747.3L655,754.1L679,760.3L688,767.1L699,771.7L720,775L750,775L762,773.4L780,762.6L798,764.6L813,761L827,751.6L842.6,735L886.1,669L911.1,607Z"/>
  <path id="lat-BA43" class="area" data-ba="43" data-nome="Área subcentral (córtex gustativo primário)" fill="#D4BBFF" d="M732.7,677.3L730,675L715,674.7L700,668.3L696.3,664L692.6,652L687.3,644L682,639.7L676,638L662,639L649,653.7L638,659.6L614,655.9L603,661.3L589,657.3L584.9,660.1L580.1,670L566.9,720L568.6,723L571,722.9L590,711.3L655,706.6L679,697.4L706,692.7L715.1,686.4L729,682.4Z"/>
  <path id="lat-BA44" class="area" data-ba="44" data-nome="Pars opercularis (área de Broca)" fill="#F4F803" d="M554.6,538.9L541,538L490,543L483.4,550L480.7,561L471.3,575L458.3,579.9L440.1,596L420.1,622.1L413.1,634.7L406.3,636.4L404.1,639L402,663L398.7,672L398,681L402.6,695L408.4,704L426,715.3L447,724.4L471,727L496,727L504,724.3L509.7,720L521.7,701L527.6,686L532,660L533.4,595L536.9,579L546.7,557L554.3,545Z"/>
  <path id="lat-BA45" class="area" data-ba="45" data-nome="Pars triangularis (área de Broca)" fill="#AF6EFE" d="M455,500L449,495.7L444,495.3L428,502.4L398,509.6L358,515.4L337,521L325.9,526.7L319.9,543L314.6,583L309.9,604L296.9,632L276.6,686L253.6,722.9L254.1,725.9L261,728L273,726.7L284,721.1L287.3,717L288.6,702L292.1,696L309,701.7L326,711L355,718.1L368,720L387.7,718.3L392,713.4L401.3,711.9L405.3,706L405.4,702L398.7,686.9L393,689.9L387.9,687L387,673L391.3,661.1L400.9,656.9L403.3,638.1L401.4,631L403.3,625L415.4,608.6L418.6,610L419.9,617.6L424.7,616L436.1,597.1L427.7,593.6L429,589.4L452,572.3L454.6,572.7L458.1,578L469.6,575.3L480.9,558L480.4,555.3L473,558L466.6,556.6L466.9,553L480.9,535L481.6,531Z"/>
  <path id="lat-BA46" class="area" data-ba="46" data-nome="Córtex pré-frontal dorsolateral" fill="#AFD6E7" d="M382,337.9L363.7,334.9L354.9,347L354,363L332,384.7L275,395.6L260,400.7L250,407.7L238.3,423L227.6,454L207.6,487L207.4,504L210.4,517L224.1,544L225.7,556L223.7,582L219.6,599L222.6,624L231,665L230.4,674L226.3,687L226,697L236,712L249,722.6L255.6,719L275.6,686L295.9,632L308.9,604L313.6,583L318.9,543L324.3,527.1L337,520L378.6,510.9L380,491L384.9,481L394.4,470.9L396.7,466L399,451L399,426L403.6,414L403,394L400.7,385L404,364L402,354L396.3,344.1Z"/>
  <path id="lat-BA47" class="area" data-ba="47" data-nome="Pars orbitalis" fill="#66FFFC" d="M291.1,697.6L287.9,718L274.6,727.9L260.1,765L242.6,782.7L238,798L238.4,806L241.9,815.3L254,815.3L247,812.1L244.4,809L244.9,804L249,801.4L264,803.7L279,802.4L282.6,806L282.1,812.9L284,814.6L308,814L331,806.4L369.6,803.4L363,794L365.1,789.4L369,788.3L377,791.3L391.6,810L390.4,816.7L382.4,817.3L383.3,822.9L387,824.3L395,821.7L406.3,804L407.9,798L405.1,789.7L400,793.7L394.4,791.9L393,788L397.1,770L400,766.9L407.6,767.4L408.7,775L413.4,770L417,757L416.7,744L413,738.4L407,742L402.3,740.4L388.7,719.7L368,721L353,718.7L326,712L300,698.9ZM339.6,794L339.1,799L335,802.4L311,807.9L306.4,805L307.6,798.3L316,794.3L334,790.9Z"/>
  <path id="lat-sem_numero" class="area" data-ba="X" data-nome="Região sem numeração no mapa original (opérculo frontal / ínsula exposta)" fill="#D4BBFF" d="M408.3,705.9L402.3,712L401.4,716L416.7,741L418,746L418,757L415.3,768L407.1,778.3L405.6,784L408.1,795L411.1,797.4L429,784.7L461,769L471,762.1L472.7,758L469,745L468.6,728.1L442,724Z"/>
  </g>
<g id="lat-tracado_grupo" fill-rule="evenodd" style="pointer-events:none">
  <path id="lat-tracado" fill="#000000" d="M538,1070L534,1072L530.7,1076L529,1088L532,1097L535,1099.3L541,1100L545,1098L548,1090L548,1080L545,1073ZM538,1075.3L541,1077L543,1082L543,1089L541.7,1093L539,1095.3L536.3,1094L535,1091L535,1079ZM515,1070L511,1071.3L508,1074L507.3,1078L510,1078.7L516,1075L520,1079L518,1083L509,1092L506.3,1098L509,1100L522,1100L524.7,1098L524,1096L518,1094.7L516.3,1092L523.3,1084L525,1077L523,1073ZM698,892L697,894L709.7,924L722,941L734,952L751,963.3L757,963.3L758,962L757,959.7L738,948L725,936L713.7,920L703.3,895L700,891.3ZM389,888L384,890.3L381,896L383,903L381,907L381,912L385,917.3L393,918L397,916L400,911L399.3,906L397,902L399,895L397,891ZM390,904.3L392,905L394,908L393.7,911L391,913.7L388,912.7L386,909L387.3,906ZM388,894L390,893L393,895L393.3,897L392,898.7L390,899.3L388,898L387,896ZM366,888L360,891L358.7,894L361,896L366,893.3L369,895L369.3,897L365.7,902L370.3,907L370.3,911L367,913.7L360,910L358,912L362,917.3L370,918L374,916L377,908L374,902L374.7,893L370,888.7ZM882,880.3L873,888L872.3,890L874,891.3L878,890.7L879.7,892L880,907L881,909L883,909.7L885,907L885,883L884,881ZM857,880L850,883L848.3,886L849,888L851,888.7L857,885L861,889L859,894L848.7,905L847.7,908L850,910L863,910L865.7,908L865,906L860,904.7L858.3,902L864.3,895L866,891L866,887L864,883ZM1136,866.3L1122,866L1120,867L1121,869.7L1128,870L1130.3,872L1124,888L1123.3,893L1125,894.7L1128.3,892L1130.7,882L1137.3,870L1137.7,868ZM1104,865L1099,867.3L1097.3,871L1100,872.7L1105,870L1108,872L1108.3,874L1104,879L1108.7,883L1110,886L1106,890.7L1099,887L1097,888L1096.7,890L1101,894.3L1108,895L1112,893L1115,888L1114.3,883L1112,879L1114,872L1111,867L1107,865ZM1454,842.3L1440,842L1437.3,844L1439,846.7L1446,847.3L1448,850L1442,865L1443,870.7L1446.3,869L1449.7,856L1456,845ZM1425,842.3L1417,849L1416.3,851L1422.7,854L1423,868L1424,870L1426,870.7L1428,868L1428,845L1427,843ZM739,801L734,803L730.7,807L731,809L734,809.7L740,806L744,810L742,814L730.7,826L730,829L732,831L746,831L748.7,829L747,826.3L742,825.7L740.3,824L747.3,815L749,810L748.3,807L745,802.7ZM716,801L709,804L707.3,807L708,809L710,810L716,806L720,810L718,815L707.7,826L707,829L709,831L723,831L725.7,829L724,826.3L719,825.7L717.3,824L725.3,812L725.3,807L721,802.3ZM155,792.3L146,800L145.3,802L147,803L150,802L152.7,804L153,818L154,820L156,820.7L158,818L158,795L157,793ZM134,792.3L125,801L126,802.7L129,802L131.7,804L132.7,819L135,820.3L137,818L137,795L136,793ZM1355,790L1351,792L1349,796L1349,799L1351,803L1348,809L1348,813L1350,817L1352,818.3L1359,820L1364,817.7L1367,812L1364,804L1366,796L1364,792L1362,790.7ZM1357,806L1360,807.3L1362,811L1358,815.7L1355,814.7L1353,811L1354,808ZM1357,794.3L1360.7,797L1360.3,799L1358,801L1355,800L1354,798ZM1336,790.3L1327,798L1326.3,800L1328,801L1331,800L1333.7,802L1334,816L1335,818L1337,818.7L1339,816L1339,793L1338,791ZM163,770L164,773L166,774L181,776L200,781L233,785L238,784.7L239,783L238,781.3L230,779L219,779L206,777L170,769L164,768.7ZM359,750.3L345,750L342.3,752L344,754.7L351,755.3L353,758L347,773L348,778.7L351.3,777L354.7,764L360.3,754L360.7,752ZM333,749.7L329,752L318,770L320,772.7L327,773.3L332,778.7L334,778L338.7,771L335,764L335,752ZM328,762.3L329.7,765L327,767.3L325.3,765ZM121.3,746L121.3,749L123.7,753L129,759L141,767.3L146.7,768.7L130,753L126,747L123,745.3ZM777,737.7L773.7,741L774,744L776,745L783,741.3L785.7,744L786,746L784,750L774.3,760L773.3,765L777.3,767.7L793,765L790,761.3L785,760.7L783.3,759L790.3,750L792,745L791.3,742L789,739L785,737ZM763,737L759,740L749.7,754L749,757L751,759.7L758,760.3L762,765L764,765.7L769.7,757L766,751L765.7,739ZM759,749L761,751L758,754.3L756,752ZM321,710L322,712.3L329,715L339,716L350,720L367,723L376,723L387,721L389,719L387,717L376,718L359,717L340,711L334,711L324,708ZM765,687L755.3,696L756,697.7L760,697.7L761.7,699L762,713L765,716L768,713L768,690ZM744,687L740,690L729,707L731,709.7L739,710.3L743,715L745,715.7L749.3,709L749.3,707L747,702L747,690ZM740,699L741.7,700L742,702L740,705L738,705.7L736.3,703ZM1361,709L1358,702.7L1335,694.3L1322,683L1319,681.3L1317,682L1316.7,685L1325,694L1337,701.3L1351,705.7L1354,708L1355,710L1355,721L1346.3,741L1335,758L1329,764L1320,770.3L1309,775L1292,778L1266,779L1263,777L1262.3,775L1267,771L1272,761L1272,741L1264.3,710L1260,702L1254,698L1252,699L1251.3,701L1256,706L1259.3,712L1267,742L1267,759L1263,767L1259,770.3L1253,773L1225,773L1209,771L1164,772L1135,776L1131,778L1130.3,780L1133,782L1147,779L1165,777L1207,776L1225,778L1250,778L1264,784.7L1292,783L1311,780L1326,773L1333,768L1341,759L1351.3,743L1357.3,730L1361,718ZM399.3,671.3L398,692L403,705L398.3,711L399,713.7L403,713.7L409,708L436,724.3L448,728L457,727L457.3,725L456,723.7L440,720.3L426,713.3L413,704L404.3,694L402,685L401,672ZM622,663L618.3,665L617.3,669L620,670L624,667.3L627,669L627.7,671L623.3,677L627.7,680L629,684L625,688L619,684.3L617,685L616.3,687L618,690L625,693L632,690L635,683L631,676L633,671L632.3,667L629,663.7ZM606,663L602,666L591,683L593,685.7L601,686.3L605,691L607,691.7L611.3,685L611.3,683L609,678L609,666ZM602,675L603.7,676L604,678L602,681L600,681.7L598.3,679ZM162.3,658L162.7,669L169,678L177,684.3L190,692.3L206,699L222,699.3L240,721L253,729.3L273,730L285,724.3L287.7,727L289.7,734L295,743L300,747.3L304.7,747.7L304,744L296.7,736L291,721L291,703L295.7,692L294,689.3L290.3,691L287.7,696L286,703L285.7,714L278,722L271,725L259,726L245,718L232,704L229,698L228,688L232,677L233,663L230,646L227,640.7L224.3,641.3L224,644L228,664L228,671L223,686L222.7,691L219,694L207,694L190,686.3L176,677L171,672L167.3,666L166.7,659L164,656.7ZM27,640.3L22.3,642L18.7,649L15,660L17,662.7L20.3,660L27.7,643ZM362,631L353,631L350,634L348,644L349,646L351,646.7L357,645.3L359.7,647L361,650L360,654L357,656L350,653L348.3,654L348.3,656L351,659L356,661L363,658L366,653L366,647L364,643L357,640.7L355.3,639L357,636.3L364,635L364.7,633ZM337,631L334,633L323.7,648L323,651L325,653.7L332,654.3L336,659L338,659.7L343.3,652L340,646L340,634ZM333,643.3L335,646L333,649L331,649.7L329.7,647ZM447,643L448,646L456,647.3L461,652.7L463,652L468,646L479,647.3L483,652L485,652.7L490.3,645L487,639L487,627L485,624.3L481.3,626L471,641L468,643.3L466.3,643L464,639L463.7,626L462,624.3L460,624.3ZM480,636.3L482,639L480,642L478,642.7L476.7,640ZM457,636.3L459,639L457,642L455,642.7L453.7,640ZM1215,617L1212.3,617L1212,626L1210.3,630L1199,643L1193,647.3L1173,653L1157,652.7L1153,649L1147.3,638L1137,625L1122,617.7L1119,617L1117,618L1116.7,620L1120,622.7L1132,628L1141,638L1149,653L1153,656.3L1159,658L1161,662L1159.3,667L1141.7,692L1133.7,707L1132,712L1133,740L1131.3,746L1121,764L1108,777L1101.3,782L1103,790L1103,810L1096.3,831L1081,848L1070,857L1057,865.3L1046,869L1029,869L1021,865L1016.7,860L1015,856L1013,846L1013,836L1011,834.3L1009,835L1008,837L1008,848L1010,858L1014,866L1021,873L1018.3,884L1013.3,896L1008,904L991,919L982,924.3L961,932.7L940,943.7L937,946L936.7,948L938,949.7L943,948.3L963,937.7L988,927.3L1006,914L1018.3,898L1022.3,889L1025.7,877L1030,874L1052,873L1056,875L1078,897L1082.3,904L1084.3,914L1086,915.7L1088,915L1089,908L1086.3,900L1074,884L1061,873L1060.7,870L1082,854L1099.3,836L1108,812L1107.3,785L1125,768L1135.3,750L1137,745L1137,714L1138.7,709L1146.7,694L1161.3,674L1164.3,668L1166.3,660L1170,657L1179,657L1197,651.3L1210,640L1216.3,630L1217,620ZM400,598.7L398,601L398,647L396.7,656L398,658.7L400,658L402,654L402,638L400.7,634L402,627L402,601ZM236.3,590L234,588L197,599L169,600L151,604.7L120,617.7L107,627L105,631L104.7,636L103,637L74,634L64,634.7L62.7,637L65,639L96,641L100,642.3L103,645L112.3,664L124.3,694L128.7,708L133,716L140,721L142,720L142.3,718L138,714L133.7,707L124.3,680L106.7,641L106.3,638L110,632L122,622.7L144,612.7L160,607L168,606L173,604L196,604L234,593.3ZM18,586.7L16,589L17,608L19,614L22,610L21,591ZM1069,586L1066,586L1062.7,591L1053,619L1048,641L1047.3,668L1038,677L1014,690.3L974,705.3L959,709.7L912,729L904,727.7L896,721.7L893,722L892,724L895,731L894,746L886.3,769L866.7,801L855.7,826L856,829L858,829.7L861.3,826L871.7,803L890.3,773L899,746L900,736L902,733.3L913,734L924,730.3L960,714.7L975,710.3L1018,694.3L1038,683.3L1053,671.7L1055,671.7L1063,677.3L1085,687.3L1096,691L1099,690L1099.7,688L1097,685.7L1082,680.3L1065,672.3L1054,664L1053,662L1053,642L1058.7,618L1069.7,588ZM398,559L396,558L377,558L361,566L352.7,577L347.3,590L338.7,605L337.3,612.7L340,613.3L341.3,612L345.7,602L352.3,592L357.7,579L366,569L378,563L395,563L398.3,561ZM484,551.3L467,577L451.7,597L451,599L452,600.7L456,600L473.3,577L484.3,559L485,553ZM690,542.3L688.7,544L689.3,546L697,551L700.3,555L701,563L700,567L701,569L703,569.3L706,564L705.3,552L702,548L697,544.7ZM22,535L20,537L21,543L20,556L22,558L25.3,555L29,545L28,541ZM1312,532L1306.7,536L1306,544L1309,549L1313,551L1317,551.3L1318.3,554L1315,556.7L1309,554L1307,556L1310,560.3L1317,561L1321,559L1323.3,556L1325,550L1325,542L1321,534L1317,532ZM1314,536.3L1317,537.3L1319,541L1317.7,545L1315,546.7L1313,546L1311,543L1311.3,539ZM1294,531.3L1285,539L1284.3,541L1286,542.3L1290,541.7L1291.7,543L1292,558L1293,560L1295,560.7L1297,558L1297,534L1296,532ZM1131,529L1125,532L1122,539L1125,546L1129,548L1134,548.3L1135.3,550L1135,552L1132,554.7L1126,552L1124.3,553L1125.3,557L1129,559L1133,559L1137,557L1140.3,553L1142,547L1142,541L1140.3,535L1136,530.7ZM1131,534L1134,535L1136,539L1134.7,543L1132,544.7L1130,544L1128,541L1128.7,536ZM1108,529L1102,532L1100.7,535L1103,537L1108,534.3L1111,536L1111.7,538L1107.7,543L1112,547L1113,551L1109,555L1103,551.3L1101,552L1100.3,554L1105,558.3L1111,559L1117,555L1119,550L1115.7,543L1116.7,534L1112,529.7ZM842,516L838,518L835.7,521L834,527L834,535L837,543L840,545.3L845,546L849,544L851.3,541L853,536L853,526L849,518L845,516ZM843,521L846.3,523L848,529L846.7,538L844,541L842,540.7L840,537L840,525ZM824,516.3L821.3,518L810,536L812,538.7L819,539.3L823,544L825,544.7L830.3,537L827,531L827,519L826,517ZM820,529L822,531L819,534.3L817,532ZM583,516L581,515.7L565,527.3L546,535L526,536L515,538L498,538L492,539.3L489.7,542L489.3,544.3L498,543L516,543L525,541L537,541L549,539L551.7,541L535.7,576L531,595L530,661L528,675L524.3,690L512,715L514,717.7L516,717L523.3,705L531,686L535,662L536,597L540.7,577L551,556L573,533L577,526L582,522L584,518ZM24,478L20.7,482L16,496L16,501L18,503.3L20.7,501L22,493L26.3,483L25.7,479ZM85,461L81,463L77.7,468L77,482L80,488.7L85,491L88,491L92,489L93.3,487L96,476L95,469L92.7,464L89,461.7ZM86,466L90,470L90,482L86,486L84,485L82,481L82,471L84,467ZM66,461.3L62,463L55.3,470L56,471.7L60,471.7L61.7,473L62,488L65,491L68,488L68,464ZM347,427L342,427L338,429L335.7,432L334,438L334,446L335.7,451L338,454L344,457L351,454L353,450L353,444L351,440L340.3,436L341.3,433L344,431.3L350,434L351.7,433L351,430ZM343,441.7L346,442.3L348,446L347.7,449L345,451.7L342,450.7L340,447L340.7,444ZM324,427L321,429L310.7,444L310,447L312,449.7L319,450.3L323,455L325,455.7L330.3,448L327,442L327,430ZM320,439.3L322,442L320,445L318,445.7L316.7,443ZM483.7,529L469,513L461,502L453,494L449,492L443,492L431,498.3L411,504L364,512L358,512L338,517L327,522L280,501.3L276.3,498L276,494L286,464L291,422L290.7,419L288,417.3L286.3,419L285,425L281,463L272,488L270.7,495L268,497.7L264,498L239,494L215,494L188,489L176,484.3L170,479L167,473L166.7,466L164,464.3L162,467L162,474L164.3,480L172.7,490L172,492L156,503.3L138,514L112,540.3L105,543L94,539L92,540L91.7,542L106,549L110.7,554L114,561L117,561.7L118,558L113.3,548L114,546L143,517L180,493L190,494L213,499L248,500L269,503L278,505.7L320,525L321,528L317,538L317,543L319,545.3L322.3,543L328,529L333,524.7L359,517L407,510L432,503.3L445,497L450,499L480,532L482,532.7ZM507.3,395L508,398L516,403L519.3,407L520.7,413L524.7,419L526.7,429L528,430.3L530,430L531,422L528.3,414L525,410L519,406L509,395ZM173,383L168,382L150,388.7L141,394L134,402L132.3,406L135,407.7L148,395.7L157,390.7L172,386.3L173.3,385ZM44,372.7L42.3,374L31.7,395L26,414L27,446L29,448L32,445L31,427L29,422L29,417L34.3,400L45.3,380L46.3,375ZM210,335.3L208.3,337L208.7,339L217,347.3L238,355.3L251,358.7L254,362L240,376L233.7,385L229,397L227,412L229,413L231.7,411L234,399L238.7,387L244,379L262,363L263,360L260,356.3L223,344.3ZM70,324.3L68,324L64.3,326L53,346L54,347.7L59,345L70.7,326ZM1276,384L1275,382.7L1271.3,384L1262.7,403L1260,411L1255.3,444L1237.7,470L1230,486L1224,489.7L1209,482.3L1196,472L1181,454L1156,428L1136,413.7L1122,408L1108,405L1090,404.7L1080,394.7L1057,381.7L1025.3,367L1025.3,365L1027,363.3L1048,358L1071,357L1076,355L1097,355L1114,351.3L1121,347L1143,326L1159,316L1161,313L1159,311L1145,318L1120,341L1114,345.3L1107,348L1097,350L1076,350L1062,353L1047,353L1014,362L992,365L963,364L957,365.7L930,381.3L914,388.3L903,392L888,391.7L872,404L839,439L824,464L813,478L796,494L790.7,501L788.7,507L784,511L768,510L749,513L728,518.7L721,521.7L718.3,525L721,527L737,521L768,515L779,516L790,515.3L796,503L824,473L843,443L877,407L888,398.7L895,397L903,397L913,394.3L928,388.3L949,375.7L964,369L993,370L1013,367L1052,384.7L1076,398.7L1082,404L1084,410L1076.3,427L1070,437L1039,468L1037.3,471L1039,473.7L1042,472.7L1074,441L1089,413L1093,410L1103,409L1128,415.7L1145,426L1175,455L1183,466L1198,481L1207,487.3L1224,496L1225.7,510L1229.7,518L1238.3,530L1247,548L1247,566L1244,585L1244,618L1252.7,639L1257,642.7L1259,640L1248,614L1248,598L1252,567L1252,546L1242.3,526L1232.7,513L1230,506L1230,496L1235.3,488L1242.7,472L1247,466.3L1251,467L1254,471L1262,477.3L1264,477.7L1265.7,476L1264,472L1255,464L1253,458L1258.3,450L1261,443L1265,412L1275.3,388ZM658,304.3L637,317L625,327L616.7,339L609.7,353L600.7,376L597,390L597,419L600,438L607,461L605,465L594.7,477L591,486L592,489L594,489.3L600.3,478L609,469L612,463L610,451L605,437L602,418L602,390L605.7,377L617.7,348L623,339L635,325L658,309.7L659.7,307ZM104.3,280.3L102,281L90,291L84.3,298L86,299L90,298.3L100,290L103.3,286ZM532.3,298L530,294.3L519,288L510,279L506.3,280L505.7,285L503,287L478,289L454,294L434,295L428,296.7L417,302.7L405,313L401.7,319L396.3,335L393,338.7L380,334L362,330L325,331L309,335.7L303,338.7L284,351L282,355L283,356L287,355.3L313,339.7L326,336L362,335L381,339.7L392,344.7L397,349L399.3,353L402,363L402,369L398.3,382L386.7,393L387,395L389,396L396,392L404,385L414,388L421,387.3L422.7,385L421,382L414,383L406.3,378L406,357L403.3,349L399.3,342L408.7,317L417,309L427,302.7L435,300L460,298L471,295L495,292L513,291L530,300.3L532,300ZM854,266.3L850,268L843.3,275L844,276.7L848,276.7L849.7,278L850,292L853,295L856,292L856,269ZM241,265L236,267L232,273L232,278L234,282L240,285L243,284.3L244.7,286L242,290.3L236,288.3L234,289L234,292L238,295L243,295L247,293L251,285L251,275L249.3,270L246,266.7ZM241,270L245,274L244.7,278L242,280.7L239,279.7L237,276L238,272ZM666,261L664,260L653,261L636,266.7L618,274.7L613,278L589,301L587,302L583,301L579,301.7L570,310.7L549,303L547,304L547.7,307L568,315.7L572,318.7L575,318.7L577.7,311L581,307L593,305L618,281L623,277.7L651,267L665,264.3L666.3,263ZM799,256L796.3,257L796.7,263L821,311L823,319L822.3,337L816,347L775,388L769,398L770,404L769,407L762,410L729,410L716,413.7L710,417L698,428.7L678,439L671.7,446L668,455L667,462L667,487L665,495L665,523L666,529L663,533L650,543L639.7,560L633,579L624,626L615.3,648L617,650.7L621.3,647L629,628L638,580L642.7,566L653,548L663,540L671,531L670,495L672,488L672,462L673.7,454L678,446L685,440.7L703,432L712,422L717,418.7L730,415L763,415L774,411L777,407L776,397L778,393L819,352L826.3,342L828,337L828,317L824.3,305ZM134,255.3L131,257L128.7,262L128,268L129,269.7L131,269L133.3,265L135.7,258ZM672,223.3L670,226L670.7,258L674,264L683,273L691,286L705,300L707,304L707.3,309L710,310.7L712,308L712,303L710.3,298L695,282L685,267L675.7,257L675,226L674,224ZM170.7,211L169,210.3L154,222L152.3,225L156,226L160,224L170,215ZM830,199.3L828,202L828,220L833,229L845,239L860,248L874.7,259L870,268L872.3,273L879.3,282L896.3,320L904,347L904,375L905,377L907,377.7L909,375L909,346L900.3,316L884.3,280L876.3,270L876.3,267L882,261.7L907,251.3L953,219L963,210L964.3,206L962,205L958,207L943,220L902,248.3L885,255L881,255L850,236L836,224L833,218L833,202L832,200ZM882,189L878.3,193L877.3,203L879,204L886,203.3L889,206L890,209L886,213.7L879,211L877,212L876.7,214L880,217.3L888,218L892,216L895,210L895,206L892,201L885,198.7L883.3,196L886,194L892,193.7L893.7,191L891,189ZM1080,186L1067,186L1064.3,188L1066,190.7L1072,191L1074.7,193L1069,208L1068.3,213L1070,214.7L1072.7,213L1075.7,202L1082.3,190L1082.7,188ZM222.7,182L220,181.7L204,189.7L200,193L199.3,196L201,197L220,187.3L222.7,185ZM402,173L398,175L396,179L398,185L396,196L400,201.3L408,202L412,200L414,196L414,192L411,186L413,178L410,173.7ZM404,188.7L407,189.3L409,193L408,196L405,198L401,194L401.7,191ZM401.3,180L405,177L408,179L408.7,181L405,184L402,182ZM516,170.7L515.3,175L524,183L534,189.3L540,191L541,193L540,199L542,203L557,220L561.7,220.7L561,216L545.7,199L545.7,196L549,190L548,188L531,181.3L520,172ZM279,168.3L277,173L278,183L280,185L282,183L282,172L280.7,169ZM274,164L272,162L252,167.7L250.3,169.7L253,171.7L256,172L270,168.3ZM704.7,154L703,152.3L675,142L668,142L660,144.7L653,149L631,167.3L628,167L626,163L624,162.3L622,165L622,171L624,174.3L630,174.3L644,164L655,154L669,147L674,147L694,155.3L701,157L704,156ZM573,93L569,93L565,95L561.7,99L560,106L561.7,117L564,120L570,123L577,120L580,114L577,106L573,104L568,103.7L566.7,102L567,100L570,97.3L576,100L578,99L578.3,97L577,95ZM570,107.3L573,109L575,113L573,117L571,118L568,117L566,113L567,110ZM1027,60L1021,63L1019.3,67L1022,68.7L1029,64.3L1031.7,67L1032,70L1030,74L1021,83L1019,88L1021,90L1035,90L1037.7,88L1037,86L1030,84.7L1028.3,82L1034,77L1038,68L1035,62.3L1030,60ZM772,50.3L767,55L758,70L760,72.7L767,73.3L771,78L773,78.7L778.7,70L775,64L774.7,52ZM768,62.3L769.7,65L767,67.3L765.3,65ZM973,33L969,35L967,39L968,40.7L974,38L977,39L977.3,42L973.7,47L978,51L979,54L977.7,57L975,58.7L969,55.3L967,56L966.7,58L971,62.3L976,63L982,60L984,56L984,52L981,46L983,39L980,34.7ZM925,32.7L881,18L865,15L789,16L754,22L741,26L728,28L715,28L703,31L687,36.7L675,42.7L654,58L650,57.7L627,49L583,46L537,50L512,58.7L502,63.7L494,69L487,76L452,66L431,66L414,70.7L404,76.7L387,89L372,104.3L359,105L356,108L358,110L376,108.3L389,94L404,83L418,74.7L431,71L452,71L477,77.7L481.7,82L482,90L483,92L485,92.7L493,78L499,72L507,66.7L541,54L581,51L626,54L654,64L663,59L669,53L682,44.7L704,36L723,32L736,32L755,27L790,21L860,19L870,21L873,23L874,25L874,46L868,59L857.7,69L856,75L855.3,86L857,89L859.7,88L861,85L861.7,73L871,64L877.3,52L879,46L879,27L881,24.3L921,36.7L941,49L945,53L952.3,65L952.7,68L949,72L938,78.3L909,91.3L877,103.7L849,116.7L821,136L802,156L790.7,172L778.7,197L776,206L776,212L779.7,225L784,232L788,235.3L790,235L791,233L784.7,223L781,209L782.7,201L798,171L810,155L825,140L851,121.7L879,108.7L904,99.3L940,83.3L955,75L975,78L989,83.7L1003,95L1006.3,101L1006.7,105L999,115L989,125L982,129.3L965,136L953,138L922,146.7L919.7,149L921,150.7L926,151L937,147L966,141L979,136L994,136L1006,140.7L1015,146L1023.3,157L1027.7,169L1032,174.3L1034,171L1028.3,155L1020,144L1008,135.7L994.3,130L995,127L1009,111.3L1030,111L1036,112L1083,126.7L1099,134.7L1115,146L1129,159L1138,165L1162,188L1167.3,196L1170,203L1170,213L1169,215L1154,225.3L1127,235L1119,235L1103,238L1071,247L1057,246L1041,241L1018,240L1005,242.7L996,250L994.3,254L997,255.3L1007,247.7L1019,245L1042,246L1056,251L1063,251L1067,253L1067.7,255L1058.7,270L1054,285L1054,295L1056,300L1058,300.3L1059.7,298L1059,285L1062.7,274L1072,258L1079,250.3L1108,242L1131,239L1155,230.3L1168,223L1174,223.7L1185,220L1193,220L1204,223.7L1215,230L1224,239L1231,249L1257,273L1265.3,285L1271.3,297L1276,311L1277,324L1273.3,332L1268,337.3L1205,367.7L1195,375L1184,386L1170.7,407L1170.3,412L1172,413L1174,412L1190,387L1208,372L1247,352.7L1256,349.3L1276,338L1290,339L1305,345L1319,362L1335,378L1350.3,402L1354,411L1357.7,429L1366,448L1366,457L1364,467L1359,480L1359,513L1361,528L1361.3,558L1364,559.7L1366,557L1366,526L1364,511L1364,482L1365,480L1368,479L1376,484L1390,499L1405,522L1417.3,538L1422.7,548L1433.3,563L1442.7,581L1465.3,613L1473.3,627L1494,681L1493,684L1487,689.3L1477,690L1463,693L1455,695.7L1435,706L1422,709L1415,709L1409,711L1394,710L1392,711L1391.3,713L1396,716L1410,716L1416,714L1428,713L1441,709.3L1456,700.7L1478,695L1486,695.7L1491,700L1498,717L1499,739L1494,749L1476,768.7L1470,769L1466,766L1455.7,749L1449,735L1438,732L1435.3,734L1437,736.7L1445.7,740L1462,771L1455,790L1455,806L1453.3,816L1446,824L1441,827L1439.3,830L1442,831.7L1447,829.3L1453,825L1458.3,818L1460,806L1460,791L1465.7,778L1471,774L1474,774L1477.7,776L1484.3,789L1490,809L1489.3,827L1477.3,847L1465,864L1452,876L1430,891L1427.3,895L1424.3,907L1419,915L1408,925L1400,930.3L1376,942.3L1343,954L1328,956L1289,957L1273,953.3L1259,938L1240.7,906L1238,893L1239,879L1246,855L1248,841L1248,830L1247,828L1245,827.3L1243,830L1241,853L1234,878L1233,895L1236.7,911L1251.7,937L1260.3,949L1258,955L1250,960L1236,962L1224,962L1192,968L1177,968L1138,962L1126,957L1109,957L1090,947L1087,940L1085,939.7L1077,949L1070,953L1048,956L977,980L960,983L943,989L907,997L893,996.3L889,992L875,983.7L863,980L849,979L823,974L796,971L772,965L765,965L739,991L714,1011L707,1021L690,1040L679.7,1056L675.7,1064L676,1066L678,1066.7L680.7,1065L692,1046L718,1015L744,994L768,970L794,976L822,979L847,984L862,985L871,987.7L885,996L886.7,999L872,1019L855,1033.3L835,1043.3L785,1063.7L764,1075L758,1083L731,1103.3L710,1112.3L694,1116L675,1115L671,1113L669.7,1111L668,1102L671,1096L678.7,1087L678,1082.7L674,1084L668,1090L658,1088L649,1084L639,1073L633,1069.7L626,1068L604,1068L589,1065L578,1059L577.3,1053L576,1051.7L570,1051.7L568.3,1055L571,1060L575,1064L583,1068.3L599,1072L626,1073L635,1077L647,1089.3L660,1093.3L663,1097L664,1114L661,1118L654,1121.3L645,1124L629,1126L616,1126L555,1121L509,1114L479,1107L461,1100.3L440,1086L433,1079L422,1061L423,1058L427,1054.7L441,1049L468,1045L493,1033.7L504,1030L525,1029.7L525.7,1028L524,1025.7L514,1025L512,1024L511.3,1022L517,1016L526,1001L538,990L552,982L552.7,979L551,978L546,978.7L530,989L522,997L511,1015L498,1025.3L465,1040L434,1045L430,1042L418,1027L391.7,1001L388,993L388,977L390,965L389,963L387,962.3L385,965L382,979L382,992L383.7,998L391,1010L412,1029L426,1047L425,1049L414,1057.7L407,1058L401,1056.3L383,1048.3L346,1021L338,1014L329.7,1000L326,989L323,971L323,954L328,931L334,917L335,909L337.7,901L353,878L373,857L390,831L398,827L402.3,821L407,811L411,808L418,798L426,791L443,780.7L467,771L492,767L502,772L503.3,781L506,782.7L508.7,780L509.7,773L519,755L535,749.3L547,742.7L560,737.3L590,714.7L610,712L614,713.3L620,711L655,710L680,700L702,697L719,692L729,687L744,673L760,662.7L783,657L796,657L814,655L869,630.3L886,618L901,599.7L915,597L945,597L951,595L951.7,593L949,591L944,592L904,592.7L902,590L904,577L907.7,565L927.3,527L938.7,491L945.3,480L949.7,470L956,463L961,459.7L985,449L986,447L985,443.7L957,455.7L946.7,464L941.3,476L934.7,486L924.3,520L902.7,563L896,593L892.3,602L884,613L867,625.3L845,636.3L813,650L784,652L758,657.3L754.7,654L752,646L751,624L757.7,601L766,582L765,579L763,578.7L760.7,581L755.7,591L746,622L746,641L750.7,661L728,680.7L716,681L693,673.3L691.3,675L693,678.7L701,683.3L709,685.7L710.7,687L710,689L701,692L679,695L654,705L620,706L612,708L597,708L594,709L590,708L580,714.3L564,721.7L549,731.3L527,741.7L511,752.3L502,756L488,756L478,752.3L472.7,746L471.7,738L470,736L468,736L467,738L467,754L460,767L425,783.7L411,797L409,795L420,758L420,744L416,735L410.3,730.3L415,745L415,759L407,782L402,804L398.3,812L392,820L379,832L370,838.3L357,844.3L337,850L274,860L240,863L231,865L222,865L212,867L202,867L186,872L180,871.3L170,862L166,852L158,850.3L132,837L120,825L96,796L82,782L74,777L69,765L68,756L52,747L44.7,738L36.7,722L27.3,695L20.7,687L16.3,676L14.3,675.3L22.3,696L24.7,706L36.7,734L46,749L65,761L66.7,769L73,781L106,814L117,829L134,844.3L161,854L167,867L174,874L178,876.3L188,877L202,872L232,870L241,868L259,867L282,863L288,863L311,858L341,854L361,848.3L371,843.7L373,844L373.3,847L370,852L346,878L332.7,899L330,907L329,915L323,929L318,951L318,974L322.7,997L327.7,1009L335,1019L366,1044L391,1058.3L404,1063L415,1063.3L418,1066L431,1086L440,1093.3L464,1107.3L478,1112L514,1120L541,1123L555,1126L591,1128L601,1130L614,1130L617,1131L630,1131L650,1128L670,1119.3L681,1121L695,1121L714,1116.3L736,1106.3L757,1091L772,1075.7L800,1062.7L839,1047.3L857,1038.3L873.3,1025L891,1003.7L897,1002L914,1001L944,994L961,988L978,985L994,979L1033,967.3L1053,960L1070,958L1077,955.3L1083,951L1087,951.3L1107,962L1124,962L1137,967L1168,971L1175,973L1193,973L1225,967L1236,967L1252,965L1260,961L1265,956L1273,959L1288,962L1330,961L1348,958L1373,949.3L1400,936.3L1412,929L1425.3,915L1429.3,908L1431.7,899L1434,895L1438,891L1458,878L1470,866L1492.3,833L1495,826L1495,808L1489.3,788L1483,774L1483,771L1491,759L1500.3,749L1504,739L1503,717L1497.3,698L1494,693L1498.3,685L1499,680L1477.3,623L1472.3,614L1447.7,579L1438.3,561L1429.7,549L1422.3,536L1392,493L1381,481L1370,474L1368.7,472L1369,464L1371,459L1371,447L1361.7,424L1360,412L1355.3,400L1343,380L1337,372L1319,354L1310,342L1298,335.7L1292,334L1286,334L1281,332L1280,330L1282,325L1282,314L1280,306L1269.3,281L1261,269L1248,258L1233,243L1227,234L1215,223.7L1210,220.7L1197,216L1179,216L1177,215L1175,212L1175,202L1173.3,197L1167,186L1144,163L1134,156L1120,143L1101,129.7L1084,121.7L1037,107L1015,105.3L1012.7,103L1008,93L1000,85L992,79.7L976,73L961,70L958.3,67L955.7,60L950,51L942,43Z"/>
  </g>
</svg>
